<svg xmlns="http://www.w3.org/2000/svg" viewBox="0 0 185.21 175.81"><g id="f2fcb119-8c42-4d46-b2ea-9f9870f2b1fc" data-name="Layer 2"><g id="aac95fda-4ec6-4e7a-906d-aaf4b4b50b78" data-name="Layer 1"><path d="M51.55,172.73a1.36,1.36,0,0,0,.91-1.32h0a1.28,1.28,0,0,0-.37-.92,2.09,2.09,0,0,0-1.49-.5H48.17v5.71H50.7c1.25,0,2.07-.58,2.07-1.56v0C52.77,173.33,52.23,172.94,51.55,172.73Zm-2.75-2.17h1.74c.82,0,1.26.36,1.26.93h0c0,.67-.53,1-1.31,1H48.8Zm3.32,3.53c0,.63-.54,1-1.4,1H48.8v-2h1.8c1,0,1.52.36,1.52,1Z" fill="#d6b03d"></path><polygon points="57.56 172.83 55.64 169.98 54.85 169.98 57.23 173.43 57.23 175.69 57.88 175.69 57.88 173.42 60.25 169.98 59.5 169.98 57.56 172.83" fill="#d6b03d"></polygon><path d="M71,168.3H68.43v7.39H71a3.7,3.7,0,0,0,3.93-3.7v0A3.68,3.68,0,0,0,71,168.3ZM74.06,172A2.87,2.87,0,0,1,71,174.92H69.26v-5.85H71A2.88,2.88,0,0,1,74.06,172Z" fill="#d6b03d"></path><path d="M82.25,168.17A3.74,3.74,0,0,0,78.47,172v0a3.71,3.71,0,0,0,3.76,3.8A3.75,3.75,0,0,0,86,172v0A3.71,3.71,0,0,0,82.25,168.17ZM85.14,172a2.9,2.9,0,0,1-2.89,3,2.94,2.94,0,0,1-2.92-3v0a2.91,2.91,0,1,1,5.81,0Z" fill="#d6b03d"></path><polygon points="94.98 171.58 90.71 171.58 90.71 168.3 89.88 168.3 89.88 175.69 90.71 175.69 90.71 172.36 94.98 172.36 94.98 175.69 95.81 175.69 95.81 168.3 94.98 168.3 94.98 171.58" fill="#d6b03d"></polygon><polygon points="106.12 172.34 110.16 172.34 110.16 171.58 106.12 171.58 106.12 169.06 110.63 169.06 110.63 168.3 105.29 168.3 105.29 175.69 110.69 175.69 110.69 174.93 106.12 174.93 106.12 172.34" fill="#d6b03d"></polygon><path d="M117.21,168.24l-3.37,7.45h.86l.87-2h4l.87,2h.9L118,168.24ZM115.9,173l1.69-3.76,1.68,3.76Z" fill="#d6b03d"></path><rect x="125" y="168.3" width="0.83" height="7.39" fill="#d6b03d"></rect><polygon points="135.54 174.22 130.89 168.3 130.11 168.3 130.11 175.69 130.92 175.69 130.92 169.63 135.69 175.69 136.36 175.69 136.36 168.3 135.54 168.3 135.54 174.22" fill="#d6b03d"></polygon><rect x="81.31" y="51.75" width="7.7" height="16.8" fill="#1a3d54"></rect><rect x="96.22" y="0.02" width="7.7" height="16.99" fill="#1a3d54"></rect><polygon points="20.57 114.12 26.31 114.12 24.8 113.22 24.8 90.02 26.29 89.13 20.55 89.13 22.07 90.03 22.07 99.59 4.23 99.59 4.23 90.03 5.74 89.13 0 89.13 1.51 90.03 1.51 113.23 0.01 114.12 5.75 114.12 4.23 113.22 4.23 101.34 22.07 101.34 22.07 113.22 20.57 114.12" fill="#1a3d54"></polygon><polygon points="33.57 113.29 32.16 114.13 49.92 114.13 51.13 111.65 49.37 112.41 36.25 112.41 36.25 102.85 45.41 102.85 45.42 102.85 46.83 103.22 46.83 100.65 45.42 101.13 36.25 101.13 36.25 93.88 49.37 93.88 51.13 94.64 49.92 92.16 32.15 92.16 33.57 93.01 33.57 113.29" fill="#1a3d54"></polygon><polygon points="112.32 93.79 114 94.54 112.85 92.1 112.83 92.07 91.26 92.07 90.09 94.58 91.83 93.79 100.71 93.79 100.71 113.25 99.22 114.13 104.87 114.13 103.39 113.25 103.39 93.79 112.32 93.79" fill="#1a3d54"></polygon><polygon points="170.33 112.41 170.33 102.85 179.43 102.85 181.11 103.21 181.11 100.67 179.47 101.13 170.33 101.13 170.33 93.88 183.48 93.88 185.21 94.63 184 92.16 166.44 92.16 167.65 92.88 167.65 113.42 166.45 114.13 183.96 114.13 185.21 111.58 183.29 112.41 170.33 112.41" fill="#1a3d54"></polygon><path d="M128.73,106.25l3.72,6.92-1.31,1h5.48l-2-1.56L123.25,91.28l0-.09-.35.73-11.21,20.91v0L110,114.13h4.39l-1.05-.75,3.82-7.13ZM123,95.46l5,9.24H118Z" fill="#1a3d54"></path><path d="M161.19,104h-5.14l1.37.81v5.81a11.86,11.86,0,0,1-6.83,2.15c-6,0-10.92-4.34-10.92-9.69s4.9-9.69,10.92-9.69a11.66,11.66,0,0,1,8,3.12v0l1.38,1.3V92.68l-2.06,1a15.29,15.29,0,0,0-7.31-2A14.53,14.53,0,0,0,141.1,95a10.71,10.71,0,0,0-4,8.11c0,6.25,6.05,11.33,13.48,11.33a14.94,14.94,0,0,0,9.16-3l.11-.09V108.2l0,0v-3.44Z" fill="#1a3d54"></path><path d="M56.41,114.13h5.65l-1.49-.88V106h5.57a8.13,8.13,0,0,1,1.48.74A6.19,6.19,0,0,1,68.9,108c.21.26.46.6.59.78a7.36,7.36,0,0,1,.43.76l.21.41a9.92,9.92,0,0,0,.88,1.59,8.58,8.58,0,0,0,1.65,1.74,5,5,0,0,0,2.27,1,3.66,3.66,0,0,0,.57,0,4.54,4.54,0,0,0,1.77-.39l.12-.05-.12,0-.52-.15a4.82,4.82,0,0,1-2.82-1.78,13.62,13.62,0,0,1-1.07-1.61c-.15-.27-.29-.58-.44-.91s-.28-.6-.45-.94a6.22,6.22,0,0,0-.7-1.07,8.3,8.3,0,0,0-.81-.86,5.42,5.42,0,0,0-1.2-.89,6.49,6.49,0,0,0,5.23-6.43V99h0c-.1-5-4.57-6.83-7.56-6.84H56.47l1.42.84v20.25Zm4.16-20.32h6.35c.54,0,5.27.18,5.35,5.15,0,5.3-5.13,5.4-5.35,5.4H60.57Z" fill="#1a3d54"></path><polygon points="80.5 114.13 86.15 114.13 84.67 113.25 84.67 93.04 86.15 92.16 80.5 92.16 81.99 93.05 81.99 113.25 80.5 114.13" fill="#1a3d54"></polygon><polygon points="111.11 131.96 112.48 131.15 108.7 131.15 98.64 149.72 88.54 131.18 88.54 131.15 88.52 131.15 88.51 131.13 88.48 131.15 84.74 131.15 86.11 131.96 86.11 152.39 84.49 153.35 90.14 153.35 88.54 152.4 88.54 136.05 98.22 153.65 98.26 153.72 99.54 151.41 99.55 151.38 99.55 151.38 108.68 134.66 108.68 152.4 107.08 153.35 112.73 153.35 111.11 152.39 111.11 131.96" fill="#1a3d54"></polygon><path d="M67.35,131.2c-6.76,0-12.25,5-12.25,11.07s5.49,11.08,12.25,11.08,12.25-5,12.25-11.08S74.1,131.2,67.35,131.2Zm0,20.24a9.23,9.23,0,1,1,9.59-9.23A9.42,9.42,0,0,1,67.32,151.44Z" fill="#1a3d54"></path><polygon points="134.86 133.1 136.63 133.86 135.41 131.38 117.64 131.38 119.06 132.22 119.06 152.51 117.65 153.35 135.41 153.35 136.63 150.87 134.86 151.63 121.74 151.63 121.74 142.07 130.91 142.07 130.91 142.07 132.33 142.44 132.33 139.87 130.91 140.34 121.74 140.34 121.74 133.1 134.86 133.1" fill="#1a3d54"></polygon><path d="M158.27,143.37a11.64,11.64,0,0,0-1.65-1.27,22,22,0,0,0-3.48-1.74l-3.49-1.3c-1.21-.38-2.34-.77-3.46-1.2s-1.59-.94-1.81-1.76a2.72,2.72,0,0,1,.65-2.48c1.07-1.19,3.08-1.79,6-1.79h.23a12.5,12.5,0,0,1,3.36.55l.29.09a10.59,10.59,0,0,1,1.27.52l2.14,1.36,0-3.41v-.09l-1.17.79a19.88,19.88,0,0,0-5.24-1.28h-.09a24.3,24.3,0,0,0-4.39.18,6.77,6.77,0,0,0-3.82,1.72,4.61,4.61,0,0,0-1.4,4.31,4.41,4.41,0,0,0,1.11,2.18,6.28,6.28,0,0,0,1.89,1.27,17.41,17.41,0,0,0,2,.74c.53.18,1,.35,1.52.56l3.39,1.28a20.66,20.66,0,0,1,3.2,1.56,7.82,7.82,0,0,1,1.28,1,2.67,2.67,0,0,1,.75,1,2.71,2.71,0,0,1,.16,1.28,4.78,4.78,0,0,1-.39,1.44,4.7,4.7,0,0,1-2.07,2.12,9.21,9.21,0,0,1-2.67.88,12.29,12.29,0,0,1-3.79,0,27.27,27.27,0,0,1-4.29-1.31l-3.26-3.19.39,3.86h0a36.21,36.21,0,0,0,6.65,2h.08l.15,0,.23,0h.09a16.5,16.5,0,0,0,2.79.23H152a10.72,10.72,0,0,0,3.92-.87,6.37,6.37,0,0,0,3.17-2.91,6.93,6.93,0,0,0,.68-2.09,5.09,5.09,0,0,0-.19-2.37A4.89,4.89,0,0,0,158.27,143.37Z" fill="#1a3d54"></path><polygon points="49.78 129.25 51.27 128.37 45.53 128.37 47.05 129.27 47.05 138.82 29.21 138.82 29.21 129.26 30.71 128.37 24.98 128.37 26.48 129.26 26.48 152.46 24.99 153.35 30.73 153.35 29.21 152.45 29.21 140.57 47.05 140.57 47.05 152.45 45.54 153.35 51.28 153.35 49.78 152.46 49.78 129.25" fill="#1a3d54"></polygon><polygon points="66.39 34.28 66.4 34.28 66.4 66.6 63.12 68.55 66.4 68.55 68.39 68.55 72.12 68.55 74.1 68.55 77.39 68.55 74.1 66.6 74.1 48.04 96.22 48.04 96.22 66.6 92.93 68.55 96.22 68.55 98.2 68.55 101.93 68.55 103.92 68.55 107.2 68.55 103.92 66.6 103.92 26.08 96.22 26.08 96.22 46.39 74.1 46.39 74.1 27.82 77.37 25.88 74.1 25.88 74.09 25.88 72.1 25.88 68.37 25.88 66.4 25.88 66.39 25.88 63.1 25.88 66.39 27.83 66.39 34.28" fill="#1a3d54"></polygon><polygon points="81.31 8.4 81.31 8.4 81.31 42.68 89.01 42.68 89.01 22.37 111.13 22.37 111.13 41.11 108.49 42.68 111.13 42.68 113.76 42.68 116.84 42.68 118.83 42.68 122.11 42.68 118.83 40.73 118.83 8.4 118.83 8.4 118.83 1.95 122.11 0 118.83 0 116.84 0 113.11 0 113.11 0 111.13 0 107.84 0 107.83 0 111.13 1.96 111.13 20.72 89.01 20.72 89.01 1.95 92.3 0 89.01 0 87.02 0 83.3 0 83.29 0 81.31 0 78.02 0 78.02 0 81.31 1.95 81.31 8.4" fill="#1a3d54"></polygon></g></g></svg>